<svg xmlns="http://www.w3.org/2000/svg" xmlns:xlink="http://www.w3.org/1999/xlink" width="183.782" height="61" viewBox="0 0 183.782 61">
  <defs>
    <filter id="Interseção_8" x="0" y="0" width="60.659" height="61" filterUnits="userSpaceOnUse">
      <feOffset dx="2" dy="1" input="SourceAlpha"/>
      <feGaussianBlur stdDeviation="3" result="blur"/>
      <feFlood flood-color="#f6514e" flood-opacity="0.4"/>
      <feComposite operator="in" in2="blur"/>
    </filter>
  </defs>
  <g id="light-version" transform="translate(-104.028 -77)">
    <text id="is.aquiz" transform="translate(175.81 116)" fill="current" font-size="29" font-family="Poppins-SemiBold, Poppins" font-weight="600"><tspan x="0" y="0">is.aquiz</tspan></text>
    <g id="Grupo_79" data-name="Grupo 79" transform="translate(112.028 84)">
      <g transform="matrix(1, 0, 0, 1, -8, -7)" filter="url(#Interseção_8)">
        <path id="Interseção_8-2" data-name="Interseção 8" d="M17.865,42.78c-6.5-.938-15.95-7.672-16.69-14.5,3.33-1.431,6.4-3.379,10.731-3.694a23.393,23.393,0,0,1,11.875,2.354c7.577,3.774,10.265,9.614,18.877,9.777l0,5.746a16.541,16.541,0,0,1-6.71-1.193c-4.439-1.727-2.262-2.11-5.152-.592A21.463,21.463,0,0,1,20.963,43,21.754,21.754,0,0,1,17.865,42.78Zm15.765-12.5c2.467-4.5,3.412-9.975,1.305-14.816C27.966-.55,5.121,5.238,6.3,22.864L.5,25.37h0C-.678,23.024.482,16.331,1.337,14A22.185,22.185,0,0,1,6.46,6.1C20.443-7.567,43.771,3.233,42.225,23.635c-.211,2.776-1.643,8.11-3.352,9.641C36.716,32.473,35.257,30.945,33.63,30.281Z" transform="translate(7 8)" fill="current"/>
      </g>
      <g id="Camada_x0020_1" transform="translate(0.535 0.539)">
        <path id="Caminho_6" data-name="Caminho 6" d="M1.152,27.942c.731,6.747,10.065,13.4,16.481,14.322A21.5,21.5,0,0,0,30.4,40.183c2.854-1.5.7-1.12,5.087.585a16.345,16.345,0,0,0,6.626,1.178l0-5.675c-8.5-.161-11.158-5.927-18.641-9.654a23.094,23.094,0,0,0-11.725-2.324c-4.281.311-7.309,2.235-10.6,3.649Zm7.8,2.238A15.4,15.4,0,0,0,12,33.432a14.883,14.883,0,0,0,9.678,3.2c1.416-.05,4.353-.559,5.1-1.316a18.345,18.345,0,0,0-3.31-2.592,19.337,19.337,0,0,0-12.067-3.164A5.894,5.894,0,0,0,8.955,30.18ZM.485,25.073,6.216,22.6C5.048,5.194,27.607-.522,34.489,15.292c2.081,4.781,1.147,10.189-1.289,14.63,1.607.656,3.047,2.165,5.176,2.957,1.688-1.512,3.1-6.778,3.311-9.52C43.213,3.213,20.178-7.452,6.371,6.043a21.913,21.913,0,0,0-5.059,7.8C.468,16.147-.677,22.756.485,25.073Z" transform="translate(0.009 -0.021)" fill="#f6514e" fill-rule="evenodd"/>
      </g>
    </g>
  </g>
</svg>
