<svg 
  xmlns="http://www.w3.org/2000/svg" 
  xmlns:xlink="http://www.w3.org/1999/xlink" 
  width="123.276" 
  height="48.386" 
  viewBox="0 0 123.276 48.386"
  style="
    margin-top: 5px; 
    max-width: 125px; 
    width: 100%;
  " 
>
  <defs>
    <style>
      .cls-1, .cls-2 {
        fill: current;
      }

      .cls-1 {
        font-size: 18px;
        font-family: Poppins-SemiBold, Poppins;
        font-weight: 600;
      }

      .cls-2, .cls-3 {
        fill-rule: evenodd;
      }

      .cls-3 {
        fill: #f6514e;
      }

      .cls-4 {
        filter: url(#shadow);
      }
    </style>
    <filter id="shadow" x="0" y="0" width="48.255" height="48.386" filterUnits="userSpaceOnUse">
      <feOffset dx="2" dy="1" input="SourceAlpha"/>
      <feGaussianBlur stdDeviation="3" result="blur"/>
      <feFlood flood-color="#f6514e" flood-opacity="0.4"/>
      <feComposite operator="in" in2="blur"/>
    </filter>
  </defs>
  <g id="new-logo" transform="translate(-108.287 -82.357)">
    <text id="is.aquiz" class="cls-1" transform="translate(161.563 112.126)"><tspan x="0" y="0">is.aquiz</tspan></text>
    <g id="icon-logo" transform="translate(115.287 90.126)">
      <g class="cls-4" transform="matrix(1, 0, 0, 1, -7, -7.77)">
        <path id="shadow-2" data-name="shadow" class="cls-2" d="M.825,20c.525,4.828,7.229,9.587,11.837,10.249a15.5,15.5,0,0,0,9.169-1.489c2.05-1.072.506-.8,3.654.419a11.778,11.778,0,0,0,4.759.843l0-4.061c-6.108-.115-8.014-4.242-13.389-6.909a16.639,16.639,0,0,0-8.421-1.663C5.361,17.614,3.187,18.99.825,20Zm5.6,1.6a11.034,11.034,0,0,0,2.19,2.328,10.715,10.715,0,0,0,6.951,2.291c1.017-.036,3.127-.4,3.664-.941a13.169,13.169,0,0,0-2.378-1.855A13.927,13.927,0,0,0,8.19,21.161,4.245,4.245,0,0,0,6.43,21.6ZM.346,17.949l4.116-1.772C3.623,3.723,19.826-.368,24.769,10.949a11.93,11.93,0,0,1-.926,10.47c1.154.469,2.188,1.549,3.718,2.116,1.212-1.082,2.229-4.85,2.378-6.813C31.035,2.305,14.49-5.327,4.573,4.331A15.677,15.677,0,0,0,.94,9.911c-.606,1.65-1.429,6.38-.594,8.038Z" transform="translate(7.01 7.98)"/>
      </g>
      <path id="icon" class="cls-3" d="M.817,19.824c.52,4.785,7.165,9.5,11.732,10.158a15.358,15.358,0,0,0,9.088-1.475c2.032-1.063.5-.795,3.622.415a11.674,11.674,0,0,0,4.717.835l0-4.025c-6.054-.114-7.943-4.2-13.27-6.847a16.492,16.492,0,0,0-8.347-1.648c-3.047.221-5.2,1.585-7.544,2.588Zm5.555,1.587a10.936,10.936,0,0,0,2.17,2.307,10.62,10.62,0,0,0,6.89,2.27c1.008-.035,3.1-.4,3.632-.933a13.052,13.052,0,0,0-2.356-1.839,13.8,13.8,0,0,0-8.59-2.244A4.208,4.208,0,0,0,6.373,21.411ZM.343,17.789l4.08-1.756C3.591,3.69,19.65-.365,24.549,10.852a11.824,11.824,0,0,1-.917,10.376c1.144.465,2.169,1.535,3.685,2.1,1.2-1.072,2.209-4.807,2.357-6.752C30.76,2.285,14.362-5.279,4.533,4.292a15.537,15.537,0,0,0-3.6,5.531c-.6,1.636-1.416,6.323-.589,7.967Z" transform="translate(0.778 -0.021)"/>
    </g>
  </g>
</svg>
